<?xml version="1.0" encoding="UTF-8"?>
<svg id="Laag_1" data-name="Laag 1" xmlns="http://www.w3.org/2000/svg" viewBox="0 0 282.42 491.96">
  <defs>
    <style>
      .cls-1 {
        fill: #fff;
        fill-rule: evenodd;
        stroke-width: 0px;
      }
    </style>
  </defs>
  <path class="cls-1" d="m148.23,488.13l130.24-131.15c2.27-2.29,3.61-5.35,3.75-8.57l.19-4.47c.32-7.37-5.57-13.52-12.95-13.52h-50.5c-7.16,0-12.96-5.8-12.96-12.96V12.96c0-7.16-5.8-12.96-12.96-12.96h-109.08c-7.16,0-12.96,5.8-12.96,12.96v304.5c0,7.16-5.8,12.96-12.96,12.96H12.96c-7.16,0-12.96,5.8-12.96,12.96v7.72c0,3.41,1.34,6.67,3.73,9.1l126.07,127.89c5.06,5.14,13.34,5.15,18.43.03Z"/>
</svg>