<?xml version="1.0" encoding="UTF-8"?>
<svg id="Laag_1" data-name="Laag 1" xmlns="http://www.w3.org/2000/svg" viewBox="0 0 19.5 15.5">
  <defs>
    <style>
      .cls-1 {
        fill: #fff;
        stroke-width: 0px;
      }
    </style>
  </defs>
  <path class="cls-1" d="m17.25,3h-2c-.41,0-.75-.34-.75-.75,0-1.24-1.01-2.25-2.25-2.25h-5c-1.24,0-2.25,1.01-2.25,2.25,0,.41-.34.75-.75.75h-2c-1.24,0-2.25,1.01-2.25,2.25v8c0,1.24,1.01,2.25,2.25,2.25h15c1.24,0,2.25-1.01,2.25-2.25V5.25c0-1.24-1.01-2.25-2.25-2.25Zm.75,10.25c0,.41-.34.75-.75.75H2.25c-.41,0-.75-.34-.75-.75V5.25c0-.41.34-.75.75-.75h2c1.24,0,2.25-1.01,2.25-2.25,0-.41.34-.75.75-.75h5c.41,0,.75.34.75.75,0,1.24,1.01,2.25,2.25,2.25h2c.41,0,.75.34.75.75v8Z"/>
  <path class="cls-1" d="m9.75,4c-2.62,0-4.75,2.13-4.75,4.75s2.13,4.75,4.75,4.75,4.75-2.13,4.75-4.75-2.13-4.75-4.75-4.75Zm0,8c-1.79,0-3.25-1.46-3.25-3.25s1.46-3.25,3.25-3.25,3.25,1.46,3.25,3.25-1.46,3.25-3.25,3.25Z"/>
  <path class="cls-1" d="m15.77,6h-.01c-.41,0-.74.34-.74.75s.34.75.75.75.75-.34.75-.75-.34-.75-.75-.75Z"/>
</svg>