<?xml version="1.0" encoding="UTF-8"?>
<svg id="Laag_1" data-name="Laag 1" xmlns="http://www.w3.org/2000/svg" viewBox="0 0 254.28 46.84">
  <defs>
    <style>
      .cls-1 {
        fill: #fff;
        stroke-width: 0px;
      }
    </style>
  </defs>
  <path class="cls-1" d="m149.95,1c-1.07,0-1.93.86-1.93,1.93v26.53c0,2.31-.64,3.46-1.92,3.46-.68,0-1.14-.24-1.38-.71s-.35-1.39-.35-2.76V1h-13.01v28.69c0,2.16-.64,3.24-1.92,3.24-.68,0-1.14-.22-1.36-.67s-.34-1.38-.34-2.79V1h-13.01v30.42c0,4.66,1.05,8.23,3.14,10.71s5.11,3.72,9.04,3.72c2.48,0,4.56-.48,6.25-1.43s3.27-2.54,4.74-4.76c2.39,4.12,5.85,6.19,10.38,6.19,3.76,0,6.83-1.24,9.2-3.72s3.56-5.68,3.56-9.62V2.93c0-1.07-.86-1.93-1.93-1.93h-9.15Zm8.51,7.11h-7.59c-.5,0-.91-.41-.91-.91v-3.78c0-.5.41-.91.91-.91h7.59c.5,0,.91.41.91.91v3.78c0,.5-.41.91-.91.91Z"/>
  <path class="cls-1" d="m34.56,46.84c-4.39,0-7.9-1.81-10.43-5.4-1.31,1.72-2.73,3.01-4.21,3.84-1.83,1.03-4.1,1.56-6.74,1.56-4.22,0-7.52-1.37-9.8-4.07-2.24-2.65-3.38-6.47-3.38-11.35V0h15.01v29.46c0,1.79.19,2.26.23,2.34.06.11.37.12.47.12.23,0,.92,0,.92-2.24V0h15.01v29.46c0,1.68.19,2.19.25,2.31.02.04.08.15.48.15.76,0,.92-1.34.92-2.46V0h15.01v32.51c0,4.18-1.29,7.65-3.83,10.31-2.56,2.67-5.9,4.03-9.92,4.03Zm-10.33-9.08l.81,1.39c2.22,3.83,5.33,5.69,9.52,5.69,3.51,0,6.28-1.12,8.48-3.41,2.21-2.31,3.28-5.23,3.28-8.92V2h-11.01v27.46c0,3.88-1.83,4.46-2.92,4.46-1.43,0-2.04-.79-2.27-1.26-.31-.62-.46-1.64-.46-3.2V2h-11.01v27.69c0,3.69-1.83,4.24-2.92,4.24-1.43,0-2.03-.77-2.26-1.23-.31-.61-.44-1.61-.44-3.24V2H2v29.42c0,4.39.98,7.78,2.9,10.06,1.91,2.26,4.62,3.36,8.27,3.36,2.29,0,4.23-.44,5.76-1.3,1.54-.87,3.02-2.36,4.4-4.44l.89-1.34Z"/>
  <g>
    <path class="cls-1" d="m170.8,28.41v16.97h-6.36v-16.97h6.36Zm-3.17-7.57c.86,0,1.61.3,2.24.91s.94,1.32.94,2.15c0,.88-.3,1.61-.89,2.18s-1.36.85-2.29.85-1.69-.28-2.29-.85-.89-1.29-.89-2.18c0-.83.31-1.55.94-2.15s1.38-.91,2.24-.91Z"/>
    <path class="cls-1" d="m188.71,28.41l-5.21,10.3h5.99v6.67h-16.35l5.17-10.33h-5.38v-6.64h15.78Z"/>
    <path class="cls-1" d="m201.23,39.01v6.59c-.52.09-1,.14-1.43.14-2.55,0-4.68-.84-6.38-2.52s-2.55-3.78-2.55-6.31.86-4.55,2.58-6.26,3.81-2.57,6.27-2.57c2.75,0,4.91.8,6.49,2.41s2.37,3.8,2.37,6.58v8.32h-6.36v-7.86c0-.9-.22-1.61-.66-2.14s-1.02-.8-1.76-.8c-.67,0-1.25.24-1.74.73s-.73,1.07-.73,1.74c0,.7.22,1.28.66,1.74s1,.68,1.68.68c.56,0,1.07-.15,1.55-.44Z"/>
    <path class="cls-1" d="m221.6,28.24v6.81c-.44-.25-.85-.37-1.21-.37-1.16,0-1.74.88-1.74,2.65v8.05h-6.36v-9.28c0-2.45.67-4.4,2.01-5.86s3.13-2.19,5.36-2.19c.5,0,1.15.06,1.94.19Z"/>
    <path class="cls-1" d="m233.92,22.15h6.36v14.14c0,2.6-.68,4.71-2.04,6.35-.78.94-1.78,1.69-2.99,2.25s-2.45.83-3.72.83c-2.53,0-4.66-.85-6.4-2.55s-2.6-3.79-2.6-6.26.86-4.46,2.59-6.21,3.77-2.62,6.13-2.62c.37,0,.94.03,1.7.1v7.01c-.52-.41-1.04-.61-1.57-.61-.66,0-1.22.24-1.69.72s-.71,1.06-.71,1.74.24,1.22.73,1.69,1.07.71,1.75.71c1.63,0,2.45-1.13,2.45-3.39v-13.9Z"/>
    <path class="cls-1" d="m254.28,28.65v6.71c-.9,0-1.51.17-1.85.5s-.55,1-.64,1.98c-.29,3.28-1.57,5.59-3.81,6.94-1.19.7-2.88,1.06-5.07,1.06h-.88v-6.74h.29c1.02,0,1.75-.21,2.19-.64s.69-1.17.76-2.24c.09-1.74.25-2.96.49-3.66s.71-1.4,1.42-2.09c1.25-1.21,2.98-1.82,5.19-1.82h1.92Z"/>
  </g>
  <g>
    <path class="cls-1" d="m60.52,46.43c-2.68,0-4.96-.91-6.79-2.71-1.83-1.8-2.75-4.06-2.75-6.72s.93-4.91,2.78-6.74c1.84-1.82,4.14-2.75,6.81-2.75s4.86.9,6.64,2.69c1.78,1.78,2.69,4.01,2.69,6.62,0,.27-.02.68-.07,1.26l-.03.31h-10.52l-.07-.24c-.16-.53-.24-1.03-.24-1.49,0-.62.11-1.24.34-1.84l.08-.22h3.14c-.27-.87-.84-1.27-1.77-1.27-.71,0-1.28.3-1.73.91-.47.63-.71,1.47-.71,2.48s.23,1.92.68,2.56c.43.61.98.91,1.68.91.55,0,1.11-.29,1.65-.88l.26-.28,4.21,5.06-.27.21c-1.8,1.41-3.82,2.13-6.02,2.13Zm.05-18.25c-2.5,0-4.63.86-6.34,2.55-1.71,1.69-2.58,3.8-2.58,6.26s.86,4.57,2.55,6.24c1.69,1.67,3.82,2.52,6.31,2.52,1.93,0,3.72-.6,5.33-1.77l-3.28-3.94c-.59.55-1.22.82-1.87.82-.92,0-1.67-.4-2.23-1.2-.54-.76-.81-1.75-.81-2.95s.28-2.13.84-2.88c.58-.78,1.34-1.18,2.27-1.18,1.39,0,2.27.77,2.53,2.23l.07.4h-3.5c-.15.45-.22.92-.22,1.38,0,.32.05.67.15,1.05h9.39c.03-.39.04-.69.04-.89,0-2.42-.84-4.49-2.49-6.15s-3.73-2.49-6.16-2.49Z"/>
    <path class="cls-1" d="m80.85,46.43c-1.35,0-2.69-.3-3.98-.89-1.29-.59-2.36-1.4-3.2-2.41-1.45-1.74-2.19-4.02-2.19-6.77v-14.93h7.24v14.69c0,2.83,1.24,3.16,2.17,3.16.63,0,1.15-.21,1.58-.63.43-.42.64-.92.64-1.52s-.2-1.14-.61-1.57c-.41-.42-.89-.63-1.48-.63-.41,0-.9.19-1.46.57l-.53.36v-8.18l.31-.03c.78-.07,1.38-.11,1.79-.11,2.55,0,4.77.93,6.59,2.77,1.82,1.84,2.74,4.08,2.74,6.67s-.94,4.91-2.79,6.72c-1.85,1.81-4.15,2.73-6.84,2.73Zm-8.69-24.32v14.26c0,2.59.68,4.72,2.03,6.33.77.93,1.77,1.68,2.96,2.23,1.2.55,2.44.83,3.7.83,2.51,0,4.65-.85,6.37-2.54,1.72-1.68,2.59-3.78,2.59-6.24s-.86-4.48-2.55-6.19c-1.69-1.7-3.74-2.57-6.11-2.57-.33,0-.81.03-1.42.08v6.33c.47-.25.91-.37,1.31-.37.77,0,1.43.28,1.96.83.53.55.8,1.23.8,2.03s-.29,1.46-.85,2.01c-.56.55-1.25.83-2.05.83-1.3,0-2.85-.66-2.85-3.83v-14.01h-5.89Z"/>
  </g>
</svg>