<?xml version="1.0" encoding="UTF-8"?>
<svg id="Laag_1" data-name="Laag 1" xmlns="http://www.w3.org/2000/svg" viewBox="0 0 20.02 20.02">
  <defs>
    <style>
      .cls-1 {
        fill: #fff;
        stroke-width: 0px;
      }
    </style>
  </defs>
  <path class="cls-1" d="m16,14.94c3.83-2.2,5.16-7.09,2.96-10.92C16.76.19,11.87-1.14,8.04,1.06c-1.23.71-2.25,1.73-2.96,2.96H0v16h16v-5.08ZM12,2.02c3.31,0,6,2.69,6,6s-2.69,6-6,6-6-2.69-6-6,2.69-6,6-6ZM2,18.02V6.02h2.26c-1.1,4.28,1.48,8.64,5.76,9.74,1.31.34,2.68.34,3.98,0v2.26H2Z"/>
</svg>