<?xml version="1.0" encoding="UTF-8"?>
<svg id="Laag_1" data-name="Laag 1" xmlns="http://www.w3.org/2000/svg" viewBox="0 0 92.2 94.81">
  <defs>
    <style>
      .cls-1 {
        fill: #fff;
        stroke-width: 0px;
      }
    </style>
  </defs>
  <path class="cls-1" d="m30.9,84.6c-15-6.2-24.9-20.9-24.9-37.2,0-13.9,7.1-26.6,18.9-34l2.3-1.4,2.1,4.2c.7,1.4,2.7,1.5,3.5.2l7.8-12.3c.8-1.3,0-3-1.6-3.1L24.5,0c-1.6-.1-2.7,1.5-2,2.9l1.9,3.8-2,1.2C8.7,16.2,0,31.3,0,47.4c0,18.6,11.5,35.5,28.5,42.6,1.9.8,4.1-.6,4.1-2.7h0c.1-1.2-.6-2.3-1.7-2.7Z"/>
  <path class="cls-1" d="m92.2,47.4c0-18.6-11.5-35.5-28.5-42.6-1.9-.8-4.1.6-4.1,2.7,0,1.2.7,2.3,1.8,2.7,14.9,6.2,24.8,20.9,24.8,37.2,0,13.9-7.1,26.6-18.9,34l-2.3,1.4-2.1-4.2c-.7-1.4-2.7-1.5-3.5-.2l-7.8,12.3c-.8,1.3,0,3,1.6,3.1l14.5,1c1.6.1,2.7-1.5,2-2.9l-1.9-3.8,2-1.2c13.7-8.3,22.4-23.4,22.4-39.5Z"/>
  <path class="cls-1" d="m52.7,72.7l.4-3.3c1.2-.4,2.4-.9,3.5-1.5l2.7,2.1c1.3,1,3.2.9,4.4-.3l4.7-4.7c1.2-1.2,1.3-3.1.3-4.4l-2.1-2.7c.6-1.1,1.1-2.3,1.5-3.5l3.4-.4c1.7-.2,2.9-1.6,2.9-3.3v-6.6c0-1.7-1.2-3.1-2.9-3.3h0l-3.4-.4c-.4-1.2-.9-2.4-1.5-3.5l2.1-2.7c1-1.3.9-3.2-.3-4.4l-4.7-4.7c-1.2-1.2-3.1-1.3-4.4-.3l-2.7,2.1c-1.1-.6-2.3-1.1-3.5-1.5l-.4-3.4c-.2-1.6-1.6-2.9-3.3-2.9h-6.6c-1.7,0-3.1,1.2-3.3,2.9l-.4,3.4c-1.2.4-2.4.9-3.5,1.5l-2.7-2.1c-1.3-1-3.2-.9-4.4.3l-4.7,4.7c-1.2,1.2-1.3,3.1-.3,4.4l2.1,2.7c-.6,1.1-1.1,2.3-1.5,3.5l-3.4.4c-1.7.2-2.9,1.6-2.9,3.3v6.6c0,1.7,1.3,3.1,2.9,3.3l3.4.4c.4,1.2.9,2.4,1.5,3.5l-2.1,2.7c-1,1.3-.9,3.2.3,4.4l4.7,4.7c1.2,1.2,3.1,1.3,4.4.3l2.7-2.1c1.1.6,2.3,1.1,3.5,1.5l.4,3.4c.2,1.7,1.6,2.9,3.3,2.9h6.6c1.7-.1,3.1-1.3,3.3-3Zm-3.8-5.3l-.5,3.9h-4.7l-.4-3.9c-.1-.9-.8-1.6-1.7-1.9-1.8-.4-3.5-1.2-5.1-2.1-.8-.5-1.8-.4-2.5.1l-3.1,2.4-3.3-3.3,2.4-3.1c.6-.7.6-1.7.1-2.5-1-1.6-1.7-3.3-2.1-5.1-.2-.9-1-1.5-1.9-1.7l-3.9-.5v-4.7l3.9-.5c.9-.1,1.6-.8,1.9-1.7.4-1.8,1.2-3.5,2.1-5.1.5-.8.4-1.8-.1-2.5l-2.4-3.1,3.3-3.3,3.1,2.4c.7.6,1.7.6,2.5.1,1.6-1,3.3-1.7,5.1-2.1.9-.2,1.5-1,1.7-1.9l.5-3.9h4.7l.5,3.9c.1.9.8,1.6,1.7,1.9,1.8.4,3.5,1.2,5.1,2.1.8.5,1.8.4,2.5-.1l3.1-2.4,3.3,3.3-2.4,3.1c-.6.7-.6,1.7-.1,2.5,1,1.6,1.7,3.3,2.1,5.1.2.9,1,1.5,1.9,1.7l3.9.5v4.7l-4,.5c-.9.1-1.6.8-1.9,1.7-.4,1.8-1.2,3.5-2.1,5.1-.5.8-.4,1.8.1,2.5l2.4,3.1-3.3,3.3-3.1-2.4c-.7-.6-1.7-.6-2.5-.1-1.6,1-3.3,1.7-5.1,2.1-.9.2-1.5,1-1.7,1.9Z"/>
  <path class="cls-1" d="m46.1,34.7c-7,0-12.7,5.7-12.7,12.7s5.7,12.7,12.7,12.7,12.7-5.7,12.7-12.7-5.7-12.7-12.7-12.7Zm0,21c-4.6,0-8.3-3.7-8.3-8.3s3.7-8.3,8.3-8.3,8.3,3.7,8.3,8.3-3.7,8.3-8.3,8.3Z"/>
</svg>