<?xml version="1.0" encoding="UTF-8"?>
<svg id="Laag_1" data-name="Laag 1" xmlns="http://www.w3.org/2000/svg" viewBox="0 0 48.31 94.39">
  <defs>
    <style>
      .cls-1 {
        fill: #fff;
        stroke-width: 0px;
      }
    </style>
  </defs>
  <path class="cls-1" d="m36.23,49.55c-1.07,0-1.93.86-1.93,1.93v26.53c0,2.31-.64,3.46-1.92,3.46-.68,0-1.14-.24-1.38-.71s-.35-1.39-.35-2.76v-28.46h-13.01v28.69c0,2.16-.64,3.24-1.92,3.24-.68,0-1.14-.22-1.36-.67s-.34-1.38-.34-2.79v-28.46H1v30.42c0,4.66,1.05,8.23,3.14,10.71s5.11,3.72,9.04,3.72c2.48,0,4.56-.48,6.25-1.43s3.27-2.54,4.74-4.76c2.39,4.12,5.85,6.19,10.38,6.19,3.76,0,6.83-1.24,9.2-3.72s3.56-5.68,3.56-9.62v-29.58c0-1.07-.86-1.93-1.93-1.93h-9.15Zm8.51,7.11h-7.59c-.5,0-.91-.41-.91-.91v-3.78c0-.5.41-.91.91-.91h7.59c.5,0,.91.41.91.91v3.78c0,.5-.41.91-.91.91Z"/>
  <path class="cls-1" d="m34.56,46.84c-4.39,0-7.9-1.81-10.43-5.4-1.31,1.72-2.73,3.01-4.21,3.84-1.83,1.03-4.1,1.56-6.74,1.56-4.22,0-7.52-1.37-9.8-4.07-2.24-2.65-3.38-6.47-3.38-11.35V0h15.01v29.46c0,1.79.19,2.26.23,2.34.06.11.37.12.47.12.23,0,.92,0,.92-2.24V0h15.01v29.46c0,1.68.19,2.19.25,2.31.02.04.08.15.48.15.76,0,.92-1.34.92-2.46V0h15.01v32.51c0,4.18-1.29,7.65-3.83,10.31-2.56,2.67-5.9,4.03-9.92,4.03Zm-10.33-9.08l.81,1.39c2.22,3.83,5.33,5.69,9.52,5.69,3.51,0,6.28-1.12,8.48-3.41,2.21-2.31,3.28-5.23,3.28-8.92V2h-11.01v27.46c0,3.88-1.83,4.46-2.92,4.46-1.43,0-2.04-.79-2.27-1.26-.31-.62-.46-1.64-.46-3.2V2h-11.01v27.69c0,3.69-1.83,4.24-2.92,4.24-1.43,0-2.03-.77-2.26-1.23-.31-.61-.44-1.61-.44-3.24V2H2v29.42c0,4.39.98,7.78,2.9,10.06,1.91,2.26,4.62,3.36,8.27,3.36,2.29,0,4.23-.44,5.76-1.3,1.54-.87,3.02-2.36,4.4-4.44l.89-1.34Z"/>
</svg>