<?xml version="1.0" encoding="UTF-8"?>
<svg id="Laag_1" data-name="Laag 1" xmlns="http://www.w3.org/2000/svg" viewBox="0 0 512 512.02">
  <defs>
    <style>
      .cls-1 {
        fill: #fff;
        stroke-width: 0px;
      }
    </style>
  </defs>
  <path class="cls-1" d="m280,.02c128.1,0,232,103.9,232,232,0,13.3-10.7,24-24,24s-24-10.7-24-24c0-101.6-82.4-184-184-184-13.3,0-24-10.7-24-24S266.7.02,280,.02Zm8,192c17.67,0,32,14.33,32,32s-14.33,32-32,32-32-14.33-32-32,14.33-32,32-32Zm-32-72c0-13.3,10.7-24,24-24,75.1,0,136,60.9,136,136,0,13.3-10.7,24-24,24s-24-10.7-24-24c0-48.6-39.4-88-88-88-13.3,0-24-10.7-24-24ZM117.5,1.42c19.4-5.3,39.7,4.6,47.4,23.2l40,96c6.8,16.3,2.1,35.2-11.6,46.3l-49.3,40.4c33.3,70.4,90.3,127.4,160.7,160.7l40.3-49.3c11.2-13.7,30-18.4,46.3-11.6l96,40c18.6,7.7,28.5,28,23.2,47.4l-24,88c-4.7,17.4-20.5,29.5-38.5,29.5C200.6,512.02,0,311.42,0,64.02,0,46.02,12.1,30.22,29.5,25.42c0,0,88-24,88-24Z"/>
</svg>