<?xml version="1.0" encoding="UTF-8"?>
<svg id="Laag_2" data-name="Laag 2" xmlns="http://www.w3.org/2000/svg" viewBox="0 0 47.24 61.25">
  <defs>
    <style>
      .cls-1 {
        fill: #5c2483;
      }

      .cls-1, .cls-2, .cls-3, .cls-4, .cls-5, .cls-6 {
        stroke-width: 0px;
      }

      .cls-2 {
        fill: #d1d0d1;
      }

      .cls-3 {
        fill: #ddd;
      }

      .cls-4 {
        fill: #fff;
      }

      .cls-5 {
        fill: #d82385;
      }

      .cls-6 {
        fill: #be821d;
      }
    </style>
  </defs>
  <g id="Laag_1-2" data-name="Laag 1">
    <g>
      <path class="cls-3" d="m34.91,16.88l-.31-4.66H12.63l-.31,4.66C4.98,20.89,0,28.68,0,37.63c0,13.04,10.57,23.62,23.62,23.62s23.62-10.57,23.62-23.62c0-8.95-4.98-16.74-12.33-20.75Z"/>
      <path class="cls-6" d="m23.62,0h-10.95c-.32,0-.58.27-.56.59l.42,8.91c.01.3.26.54.56.54h21.06c.3,0,.55-.24.56-.54l.42-8.91c.02-.32-.24-.59-.56-.59h-10.95Z"/>
      <rect class="cls-2" x="9.3" y="6.72" width="28.64" height="5.6" rx=".62" ry=".62"/>
      <path class="cls-5" d="m2.93,36.23c-.05.59-.09,1.17-.09,1.77,0,11.48,9.3,20.78,20.78,20.78s20.78-9.3,20.78-20.78c0-.6-.04-1.19-.09-1.77H2.93Z"/>
      <path class="cls-1" d="m2.93,36.23c.41-3.2,5.16-3.47,8.44-2.04,1.83.79,2.12.94,3.56,1.27,2.89.68,4.07-.79,7.36-1.54,5.68-1.29,7.09,3.18,12.72,1.75,2.02-.52,3.86-1.61,6.6-1.04.61.13,2.59.71,2.7,1.6.45,3.53-3.02,4.05-6.21,5-4.68,1.4-6.57,2.37-13.09,2.56-6.03.17-8.31-1.54-12.37-2.05-6.65-.82-9.92-3.89-9.71-5.51Z"/>
      <path class="cls-4" d="m12.67,53.4c.07.58-10.77-12.35-6.31-23.43,1.55-3.87,9.34-10.39,7.65-8.6-13.94,14.75-1.64,29.35-1.34,32.03Z"/>
    </g>
  </g>
</svg>